# xmcd CD database file
#
# Track frame offsets:
#	150
#	16990
#	33745
#	48911
#
# Disc length: 878 seconds
#
# Revision: 0
# Processed by: cddbd v1.5.2PL0 Copyright (c) Steve Scherf et al.
# Submitted via: CDex 1.51
#
DISCID=2a036c04
DTITLE=Chris E. Thomas - And The Free Range
DYEAR=2010
DGENRE=Country
TTITLE0=Let Go
TTITLE1=Slippin' Away
TTITLE2=I'll Be Gone
TTITLE3=One For The Roadie
EXTD=YEAR: 2010
EXTT0=
EXTT1=
EXTT2=
EXTT3=
PLAYORDER=
